<svg width="100" height="109" viewBox="0 0 100 109" fill="none" xmlns="http://www.w3.org/2000/svg">
<g clip-path="url(#clip0_9_3)">
<path d="M100 6.25V79.1667C100 81.3368 99.2621 83.2682 97.7865 84.9609C96.3108 86.6537 94.4444 87.9666 92.1875 88.8997C89.9306 89.8329 87.6845 90.5274 85.4492 90.9831C83.214 91.4388 81.1198 91.6667 79.1667 91.6667C77.2135 91.6667 75.1194 91.4388 72.8841 90.9831C70.6489 90.5274 68.4028 89.8329 66.1458 88.8997C63.8889 87.9666 62.0226 86.6537 60.5469 84.9609C59.0712 83.2682 58.3333 81.3368 58.3333 79.1667C58.3333 76.9965 59.0712 75.0651 60.5469 73.3724C62.0226 71.6797 63.8889 70.3668 66.1458 69.4336C68.4028 68.5004 70.6489 67.806 72.8841 67.3503C75.1194 66.8945 77.2135 66.6667 79.1667 66.6667C83.724 66.6667 87.8906 67.513 91.6667 69.2057V34.2448L41.6667 49.6745V95.8333C41.6667 98.0035 40.9288 99.9349 39.4531 101.628C37.9774 103.32 36.1111 104.633 33.8542 105.566C31.5972 106.5 29.3511 107.194 27.1159 107.65C24.8806 108.105 22.7865 108.333 20.8333 108.333C18.8802 108.333 16.786 108.105 14.5508 107.65C12.3155 107.194 10.0694 106.5 7.8125 105.566C5.55556 104.633 3.68924 103.32 2.21354 101.628C0.737847 99.9349 0 98.0035 0 95.8333C0 93.6632 0.737847 91.7318 2.21354 90.0391C3.68924 88.3464 5.55556 87.0334 7.8125 86.1003C10.0694 85.1671 12.3155 84.4727 14.5508 84.0169C16.786 83.5612 18.8802 83.3333 20.8333 83.3333C25.3906 83.3333 29.5573 84.1797 33.3333 85.8724V22.9167C33.3333 21.5712 33.7457 20.3451 34.5703 19.2383C35.395 18.1315 36.4583 17.3611 37.7604 16.9271L91.9271 0.260417C92.4479 0.0868056 93.0556 0 93.75 0C95.4861 0 96.9618 0.607639 98.1771 1.82292C99.3924 3.03819 100 4.51389 100 6.25Z" fill="#F8F8F8"/>
</g>
<defs>
<clipPath id="clip0_9_3">
<rect width="100" height="108.333" fill="white"/>
</clipPath>
</defs>
</svg>
