<svg width="75" height="75" viewBox="0 0 75 75" fill="none" xmlns="http://www.w3.org/2000/svg">
<path d="M65.625 11.7188C65.625 11.0972 65.3781 10.501 64.9385 10.0615C64.499 9.62193 63.9029 9.37501 63.2812 9.37501C62.6596 9.37501 62.0635 9.62193 61.624 10.0615C61.1844 10.501 60.9375 11.0972 60.9375 11.7188V63.2813C60.9375 63.9029 61.1844 64.499 61.624 64.9385C62.0635 65.3781 62.6596 65.625 63.2812 65.625C63.9029 65.625 64.499 65.3781 64.9385 64.9385C65.3781 64.499 65.625 63.9029 65.625 63.2813V11.7188ZM9.375 14.8531C9.375 10.4531 14.3062 7.85313 17.9375 10.3406L50.7406 32.8219C51.4707 33.3223 52.0685 33.9925 52.4825 34.7749C52.8965 35.5573 53.1143 36.4285 53.1174 37.3137C53.1205 38.1988 52.9087 39.0715 52.5001 39.8568C52.0916 40.642 51.4985 41.3164 50.7719 41.8219L17.9625 64.6406C14.3375 67.1625 9.37188 64.5656 9.37188 60.15V14.8531H9.375Z" fill="white"/>
</svg>
