<svg width="75" height="75" viewBox="0 0 75 75" fill="none" xmlns="http://www.w3.org/2000/svg">
<path d="M67 33.5L18.625 9.3125C17.9724 9.01014 17.2545 8.87581 16.5368 8.92173C15.819 8.96766 15.1241 9.19238 14.5153 9.57543C13.9066 9.95849 13.4033 10.4877 13.0513 11.115C12.6993 11.7422 12.5098 12.4475 12.5 13.1667V61.5208C12.4939 62.2591 12.6784 62.9864 13.0355 63.6325C13.3927 64.2786 13.9105 64.8217 14.5389 65.2092C15.1673 65.5967 15.885 65.8156 16.6227 65.8446C17.3604 65.8737 18.0931 65.7119 18.75 65.375L67 41.1875C67.7147 40.8287 68.3156 40.2783 68.7355 39.5977C69.1554 38.917 69.3778 38.1331 69.3778 37.3333C69.3778 36.5336 69.1554 35.7496 68.7355 35.069C68.3156 34.3884 67.7147 33.8379 67 33.4792V33.5Z" fill="white"/>
</svg>
